G04 MADE WITH FRITZING*
G04 WWW.FRITZING.ORG*
G04 DOUBLE SIDED*
G04 HOLES PLATED*
G04 CONTOUR ON CENTER OF CONTOUR VECTOR*
%ASAXBY*%
%FSLAX23Y23*%
%MOIN*%
%OFA0B0*%
%SFA1.0B1.0*%
%ADD10C,0.074000*%
%ADD11C,0.075000*%
%ADD12C,0.062992*%
%ADD13C,0.078000*%
%ADD14R,0.074000X0.074000*%
%ADD15R,0.062992X0.062992*%
%ADD16R,0.078000X0.078000*%
%ADD17C,0.024000*%
%LNCOPPER0*%
G90*
G70*
G54D10*
X2668Y789D03*
X2568Y789D03*
X2468Y789D03*
X2368Y789D03*
X2268Y789D03*
X2168Y789D03*
X2068Y789D03*
X517Y1497D03*
X417Y1497D03*
X317Y1497D03*
X217Y1497D03*
X693Y789D03*
X793Y789D03*
X893Y789D03*
X993Y789D03*
X1093Y789D03*
X1193Y789D03*
X1293Y789D03*
G54D11*
X2038Y1812D03*
X1738Y1812D03*
X1526Y1143D03*
X1226Y1143D03*
X1723Y1379D03*
X1423Y1379D03*
G54D10*
X457Y1025D03*
X507Y1100D03*
X557Y1025D03*
G54D12*
X1069Y1301D03*
X1167Y1301D03*
X1502Y1812D03*
X1600Y1812D03*
G54D10*
X3058Y1066D03*
X3058Y1166D03*
X3058Y1266D03*
X3058Y1366D03*
X3058Y1466D03*
X3058Y1566D03*
X2958Y1016D03*
X2858Y1016D03*
X2758Y1016D03*
X2658Y1016D03*
X2558Y1016D03*
X2613Y1131D03*
X2513Y1131D03*
X2458Y1016D03*
X2358Y1016D03*
X2258Y1016D03*
X2158Y1016D03*
X2058Y1016D03*
X1958Y1016D03*
X1858Y1016D03*
X1858Y1616D03*
X1958Y1616D03*
X2058Y1616D03*
X2158Y1616D03*
X2258Y1616D03*
X2358Y1616D03*
X2458Y1616D03*
X2558Y1616D03*
X2658Y1616D03*
X2758Y1616D03*
X2858Y1616D03*
X2958Y1616D03*
G54D13*
X2858Y789D03*
X2958Y789D03*
G54D14*
X517Y1497D03*
G54D15*
X1069Y1301D03*
X1502Y1812D03*
G54D16*
X2858Y789D03*
G54D17*
X2051Y1261D02*
X2684Y1261D01*
D02*
X1659Y1141D02*
X2051Y1261D01*
D02*
X2684Y1261D02*
X2684Y1141D01*
D02*
X2684Y1141D02*
X2664Y1046D01*
D02*
X1096Y820D02*
X1110Y984D01*
D02*
X1659Y984D02*
X1659Y1141D01*
D02*
X1110Y984D02*
X1659Y984D01*
D02*
X2579Y818D02*
X2647Y987D01*
D02*
X2699Y789D02*
X2828Y789D01*
D02*
X2179Y993D02*
X2347Y812D01*
D02*
X2079Y993D02*
X2247Y812D01*
D02*
X2147Y812D02*
X1979Y993D01*
D02*
X2047Y812D02*
X1879Y993D01*
D02*
X791Y471D02*
X2291Y471D01*
D02*
X2291Y471D02*
X2270Y758D01*
D02*
X793Y758D02*
X791Y471D01*
D02*
X200Y1224D02*
X676Y1224D01*
D02*
X676Y1224D02*
X571Y1048D01*
D02*
X215Y1466D02*
X200Y1224D01*
D02*
X1031Y1182D02*
X1060Y1275D01*
D02*
X555Y905D02*
X1031Y905D01*
D02*
X556Y998D02*
X555Y905D01*
D02*
X1031Y905D02*
X1031Y1182D01*
D02*
X2877Y158D02*
X85Y121D01*
D02*
X2859Y759D02*
X2877Y158D01*
D02*
X85Y1026D02*
X430Y1025D01*
D02*
X85Y121D02*
X85Y1026D01*
D02*
X2370Y1381D02*
X1752Y1379D01*
D02*
X2360Y1584D02*
X2370Y1381D01*
D02*
X1216Y1170D02*
X1176Y1275D01*
D02*
X1659Y1141D02*
X1555Y1143D01*
D02*
X1580Y1381D02*
X1580Y1653D01*
D02*
X1110Y1653D02*
X869Y1381D01*
D02*
X869Y1381D02*
X320Y1381D01*
D02*
X320Y1381D02*
X318Y1466D01*
D02*
X1580Y1653D02*
X1110Y1653D01*
D02*
X1659Y1141D02*
X1580Y1381D01*
D02*
X911Y1731D02*
X2448Y1731D01*
D02*
X754Y1496D02*
X911Y1731D01*
D02*
X548Y1497D02*
X754Y1496D01*
D02*
X2448Y1731D02*
X2456Y1647D01*
D02*
X3233Y2050D02*
X3233Y1810D01*
D02*
X3233Y1810D02*
X3233Y1141D01*
D02*
X1502Y1839D02*
X1502Y2050D01*
D02*
X2877Y1141D02*
X2863Y1046D01*
D02*
X1502Y2050D02*
X3233Y2050D01*
D02*
X3233Y1141D02*
X2877Y1141D01*
G04 End of Copper0*
M02*