G04 MADE WITH FRITZING*
G04 WWW.FRITZING.ORG*
G04 DOUBLE SIDED*
G04 HOLES PLATED*
G04 CONTOUR ON CENTER OF CONTOUR VECTOR*
%ASAXBY*%
%FSLAX23Y23*%
%MOIN*%
%OFA0B0*%
%SFA1.0B1.0*%
%ADD10C,0.074000*%
%ADD11C,0.075000*%
%ADD12C,0.062992*%
%ADD13C,0.078000*%
%ADD14R,0.062992X0.062992*%
%ADD15R,0.074000X0.074000*%
%ADD16R,0.078000X0.078000*%
%ADD17C,0.024000*%
%LNCOPPER1*%
G90*
G70*
G54D10*
X2668Y789D03*
X2568Y789D03*
X2468Y789D03*
X2368Y789D03*
X2268Y789D03*
X2168Y789D03*
X2068Y789D03*
X693Y789D03*
X793Y789D03*
X893Y789D03*
X993Y789D03*
X1093Y789D03*
X1193Y789D03*
X1293Y789D03*
G54D11*
X2038Y1812D03*
X1738Y1812D03*
G54D12*
X1069Y1301D03*
X1167Y1301D03*
G54D10*
X3058Y1066D03*
X3058Y1166D03*
X3058Y1266D03*
X3058Y1366D03*
X3058Y1466D03*
X3058Y1566D03*
X2958Y1016D03*
X2858Y1016D03*
X2758Y1016D03*
X2658Y1016D03*
X2558Y1016D03*
X2613Y1131D03*
X2513Y1131D03*
X2458Y1016D03*
X2358Y1016D03*
X2258Y1016D03*
X2158Y1016D03*
X2058Y1016D03*
X1958Y1016D03*
X1858Y1016D03*
X1858Y1616D03*
X1958Y1616D03*
X2058Y1616D03*
X2158Y1616D03*
X2258Y1616D03*
X2358Y1616D03*
X2458Y1616D03*
X2558Y1616D03*
X2658Y1616D03*
X2758Y1616D03*
X2858Y1616D03*
X2958Y1616D03*
X517Y1497D03*
X417Y1497D03*
X317Y1497D03*
X217Y1497D03*
G54D13*
X2858Y789D03*
X2958Y789D03*
G54D11*
X1526Y1143D03*
X1226Y1143D03*
X1723Y1379D03*
X1423Y1379D03*
G54D12*
X1502Y1812D03*
X1600Y1812D03*
G54D10*
X457Y1025D03*
X507Y1100D03*
X557Y1025D03*
X457Y1025D03*
X507Y1100D03*
X557Y1025D03*
G54D14*
X1069Y1301D03*
G54D15*
X517Y1497D03*
G54D16*
X2858Y789D03*
G54D14*
X1502Y1812D03*
G54D17*
X2958Y984D02*
X2958Y819D01*
D02*
X2858Y984D02*
X2858Y819D01*
D02*
X2485Y278D02*
X2469Y758D01*
D02*
X3196Y1418D02*
X3196Y278D01*
D02*
X3196Y278D02*
X2485Y278D01*
D02*
X1972Y1418D02*
X3196Y1418D01*
D02*
X1961Y1584D02*
X1972Y1418D01*
D02*
X2171Y869D02*
X2169Y820D01*
D02*
X1188Y905D02*
X1460Y905D01*
D02*
X1192Y820D02*
X1188Y905D01*
D02*
X1779Y869D02*
X2171Y869D01*
D02*
X1460Y905D02*
X1779Y869D01*
D02*
X712Y1381D02*
X911Y1575D01*
D02*
X1303Y236D02*
X122Y236D01*
D02*
X911Y1575D02*
X1827Y1614D01*
D02*
X122Y236D02*
X122Y1261D01*
D02*
X1294Y758D02*
X1303Y236D01*
D02*
X122Y1261D02*
X712Y1381D01*
D02*
X1779Y905D02*
X2370Y905D01*
D02*
X1460Y947D02*
X1779Y905D01*
D02*
X992Y820D02*
X989Y947D01*
D02*
X989Y947D02*
X1460Y947D01*
D02*
X2370Y905D02*
X2368Y820D01*
D02*
X869Y1026D02*
X584Y1025D01*
D02*
X890Y820D02*
X869Y1026D01*
D02*
X2257Y1047D02*
X2250Y1303D01*
D02*
X2250Y1303D02*
X1194Y1301D01*
D02*
X1394Y1379D02*
X989Y1381D01*
D02*
X519Y1261D02*
X509Y1127D01*
D02*
X989Y1381D02*
X519Y1261D01*
D02*
X2250Y1930D02*
X440Y1930D01*
D02*
X440Y1930D02*
X419Y1528D01*
D02*
X2257Y1647D02*
X2250Y1930D01*
D02*
X2041Y1784D02*
X2055Y1646D01*
D02*
X1627Y1812D02*
X1709Y1812D01*
G04 End of Copper1*
M02*