G04 MADE WITH FRITZING*
G04 WWW.FRITZING.ORG*
G04 DOUBLE SIDED*
G04 HOLES PLATED*
G04 CONTOUR ON CENTER OF CONTOUR VECTOR*
%ASAXBY*%
%FSLAX23Y23*%
%MOIN*%
%OFA0B0*%
%SFA1.0B1.0*%
%ADD10C,0.078000*%
%ADD11C,0.074000*%
%ADD12C,0.075000*%
%ADD13C,0.062992*%
%ADD14R,0.078000X0.078000*%
%ADD15R,0.074000X0.074000*%
%ADD16R,0.062992X0.062992*%
%ADD17C,0.024000*%
%LNCOPPER1*%
G90*
G70*
G54D10*
X2858Y1519D03*
X2958Y1519D03*
G54D11*
X2686Y1007D03*
X2586Y1007D03*
X2486Y1007D03*
X2386Y1007D03*
X2286Y1007D03*
X2186Y1007D03*
X2086Y1007D03*
X502Y2070D03*
X402Y2070D03*
X302Y2070D03*
X202Y2070D03*
X711Y1165D03*
X811Y1165D03*
X911Y1165D03*
X1011Y1165D03*
X1111Y1165D03*
X1211Y1165D03*
X1311Y1165D03*
G54D12*
X1723Y2110D03*
X1423Y2110D03*
X1526Y1795D03*
X1226Y1795D03*
X2038Y2543D03*
X1738Y2543D03*
G54D11*
X575Y1519D03*
X625Y1594D03*
X675Y1519D03*
X575Y1519D03*
X625Y1594D03*
X675Y1519D03*
G54D13*
X1502Y2543D03*
X1600Y2543D03*
X1069Y1992D03*
X1167Y1992D03*
G54D11*
X3058Y1796D03*
X3058Y1896D03*
X3058Y1996D03*
X3058Y2096D03*
X3058Y2196D03*
X3058Y2296D03*
X2958Y1746D03*
X2858Y1746D03*
X2758Y1746D03*
X2658Y1746D03*
X2558Y1746D03*
X2613Y1861D03*
X2513Y1861D03*
X2458Y1746D03*
X2358Y1746D03*
X2258Y1746D03*
X2158Y1746D03*
X2058Y1746D03*
X1958Y1746D03*
X1858Y1746D03*
X1858Y2346D03*
X1958Y2346D03*
X2058Y2346D03*
X2158Y2346D03*
X2258Y2346D03*
X2358Y2346D03*
X2458Y2346D03*
X2558Y2346D03*
X2658Y2346D03*
X2758Y2346D03*
X2858Y2346D03*
X2958Y2346D03*
G54D14*
X2858Y1519D03*
G54D15*
X502Y2070D03*
G54D16*
X1502Y2543D03*
X1069Y1992D03*
G54D17*
X2858Y1715D02*
X2858Y1549D01*
D02*
X2958Y1715D02*
X2958Y1549D01*
D02*
X2488Y768D02*
X2485Y1008D01*
D02*
X3194Y768D02*
X2488Y768D01*
D02*
X2485Y1008D02*
X2464Y1029D01*
D02*
X3196Y2148D02*
X3194Y768D01*
D02*
X1975Y2150D02*
X3196Y2148D01*
D02*
X1961Y2315D02*
X1975Y2150D01*
D02*
X1502Y1401D02*
X1818Y1401D01*
D02*
X1818Y1401D02*
X2171Y1401D01*
D02*
X1855Y1517D02*
X2366Y1517D01*
D02*
X1459Y1517D02*
X1855Y1517D01*
D02*
X595Y1834D02*
X913Y2348D01*
D02*
X913Y2348D02*
X1827Y2346D01*
D02*
X2366Y1517D02*
X2385Y1039D01*
D02*
X992Y1518D02*
X1459Y1517D01*
D02*
X1009Y1196D02*
X992Y1518D01*
D02*
X1307Y890D02*
X126Y890D01*
D02*
X126Y890D02*
X126Y1834D01*
D02*
X126Y1834D02*
X595Y1834D01*
D02*
X1311Y1134D02*
X1307Y890D01*
D02*
X2171Y1401D02*
X2185Y1039D01*
D02*
X1224Y1400D02*
X1502Y1401D01*
D02*
X1213Y1196D02*
X1224Y1400D01*
D02*
X989Y2112D02*
X795Y1834D01*
D02*
X2250Y2661D02*
X400Y2659D01*
D02*
X795Y1834D02*
X641Y1616D01*
D02*
X1394Y2110D02*
X989Y2112D01*
D02*
X2251Y1992D02*
X1194Y1992D01*
D02*
X2257Y1777D02*
X2251Y1992D01*
D02*
X869Y1517D02*
X702Y1519D01*
D02*
X907Y1196D02*
X869Y1517D01*
D02*
X1627Y2543D02*
X1709Y2543D01*
D02*
X2041Y2514D02*
X2055Y2377D01*
D02*
X400Y2659D02*
X402Y2102D01*
D02*
X2257Y2377D02*
X2250Y2661D01*
G04 End of Copper1*
M02*