; NON-PLATED HOLES START AT T1
; THROUGH (PLATED) HOLES START AT T100
M48
INCH
T100C0.031497
T101C0.038000
T102C0.032000
T103C0.040000
T104C0.035000
%
T100
X015016Y025429
X016000Y025429
X010685Y019917
X011669Y019917
T101
X029583Y015192
X028583Y015192
T102
X005748Y015192
X006748Y015192
X006248Y015942
T103
X002024Y020704
X020858Y010074
X007110Y011649
X022583Y023460
X011110Y011649
X021583Y017460
X029583Y023460
X009110Y011649
X024858Y010074
X019583Y017460
X020583Y023460
X021583Y023460
X030583Y017960
X028583Y023460
X024583Y023460
X030583Y022960
X025858Y010074
X023583Y017460
X023858Y010074
X026583Y023460
X018583Y017460
X026583Y017460
X026858Y010074
X022583Y017460
X028583Y017460
X003024Y020704
X030583Y018960
X013110Y011649
X022858Y010074
X025133Y018610
X027583Y017460
X029583Y017460
X030583Y020960
X012110Y011649
X008110Y011649
X027583Y023460
X023583Y023460
X010110Y011649
X019583Y023460
X030583Y019960
X018583Y023460
X020583Y017460
X030583Y021960
X004024Y020704
X026133Y018610
X005024Y020704
X024583Y017460
X025583Y017460
X021858Y010074
X025583Y023460
T104
X014229Y021098
X012260Y017948
X015260Y017948
X020378Y025429
X017378Y025429
X017229Y021098
T00
M30
