; NON-PLATED HOLES START AT T1
; THROUGH (PLATED) HOLES START AT T100
M48
INCH
T100C0.032000
T101C0.040000
T102C0.031497
T103C0.038000
T104C0.035000
%
T100
X005567Y010249
X005067Y010999
X004567Y010249
T101
X021583Y016155
X026583Y010155
X030583Y014655
X018583Y010155
X002173Y014974
X006929Y007887
X020677Y007887
X024677Y007887
X030583Y012655
X022583Y016155
X023583Y016155
X011929Y007887
X030583Y015655
X019583Y010155
X021583Y010155
X027583Y010155
X030583Y013655
X003173Y014974
X005173Y014974
X020583Y016155
X010929Y007887
X024583Y016155
X022677Y007887
X026677Y007887
X028583Y010155
X025677Y007887
X019583Y016155
X024583Y010155
X023677Y007887
X020583Y010155
X008929Y007887
X025583Y010155
X009929Y007887
X030583Y010655
X028583Y016155
X023583Y010155
X026583Y016155
X026133Y011305
X004173Y014974
X018583Y016155
X007929Y007887
X029583Y010155
X025583Y016155
X022583Y010155
X030583Y011655
X012929Y007887
X025133Y011305
X027583Y016155
X021677Y007887
X029583Y016155
T102
X010685Y013005
X015016Y018123
X016000Y018123
X011669Y013005
T103
X029583Y007887
X028583Y007887
T104
X014228Y013792
X017378Y018123
X015260Y011430
X020378Y018123
X012260Y011430
X017228Y013792
T00
M30
