G04 MADE WITH FRITZING*
G04 WWW.FRITZING.ORG*
G04 DOUBLE SIDED*
G04 HOLES PLATED*
G04 CONTOUR ON CENTER OF CONTOUR VECTOR*
%ASAXBY*%
%FSLAX23Y23*%
%MOIN*%
%OFA0B0*%
%SFA1.0B1.0*%
%ADD10C,0.084000*%
%ADD11C,0.086500*%
%ADD12C,0.085000*%
%ADD13C,0.072992*%
%ADD14C,0.088000*%
%ADD15R,0.072992X0.072992*%
%ADD16R,0.084000X0.084000*%
%ADD17R,0.088000X0.088000*%
%LNMASK1*%
G90*
G70*
G54D10*
X2668Y789D03*
X2568Y789D03*
X2468Y789D03*
X2368Y789D03*
X2268Y789D03*
X2168Y789D03*
X2068Y789D03*
G54D11*
X693Y789D03*
X793Y789D03*
X893Y789D03*
X993Y789D03*
X1093Y789D03*
X1193Y789D03*
X1293Y789D03*
G54D12*
X2038Y1812D03*
X1738Y1812D03*
G54D13*
X1069Y1301D03*
X1167Y1301D03*
G54D10*
X3058Y1066D03*
X3058Y1166D03*
X3058Y1266D03*
X3058Y1366D03*
X3058Y1466D03*
X3058Y1566D03*
X2958Y1016D03*
X2858Y1016D03*
X2758Y1016D03*
X2658Y1016D03*
X2558Y1016D03*
X2613Y1131D03*
X2513Y1131D03*
X2458Y1016D03*
X2358Y1016D03*
X2258Y1016D03*
X2158Y1016D03*
X2058Y1016D03*
X1958Y1016D03*
X1858Y1016D03*
X1858Y1616D03*
X1958Y1616D03*
X2058Y1616D03*
X2158Y1616D03*
X2258Y1616D03*
X2358Y1616D03*
X2458Y1616D03*
X2558Y1616D03*
X2658Y1616D03*
X2758Y1616D03*
X2858Y1616D03*
X2958Y1616D03*
X517Y1497D03*
X417Y1497D03*
X317Y1497D03*
X217Y1497D03*
G54D14*
X2858Y789D03*
X2958Y789D03*
G54D12*
X1526Y1143D03*
X1226Y1143D03*
X1723Y1379D03*
X1423Y1379D03*
G54D13*
X1502Y1812D03*
X1600Y1812D03*
G54D10*
X457Y1025D03*
X507Y1100D03*
X557Y1025D03*
X457Y1025D03*
X507Y1100D03*
X557Y1025D03*
G54D15*
X1069Y1301D03*
G54D16*
X517Y1497D03*
G54D17*
X2858Y789D03*
G54D15*
X1502Y1812D03*
G04 End of Mask1*
M02*